<svg width="14" height="12" xmlns="http://www.w3.org/2000/svg"><g fill="#7C7F84" fill-rule="evenodd"><path d="M1.91 5.391l.632-.181a1 1 0 0 1 1.276.961v4.221a1 1 0 0 1-1.225.975l-.684-.159A2.465 2.465 0 0 1 0 8.808v-.883c0-1.176.779-2.21 1.91-2.534z"/><path d="M2.728 5.954v1.682H1.273V5.954C1.273 1.854 3.986 0 6.99 0c3.004 0 5.737 1.988 5.737 5.954v1.682h-1.44V5.954c0-2.8-1.801-4.487-4.297-4.487-2.496 0-4.262 1.563-4.262 4.487z" fill-rule="nonzero"/><path d="M11.427 5.189l.664.168A2.528 2.528 0 0 1 14 7.808v.868c0 1.167-.782 2.19-1.91 2.495l-.647.175a1 1 0 0 1-1.261-.965V6.159a1 1 0 0 1 1.245-.97z"/></g></svg>