<svg width="16" height="16" viewBox="0 0 32 20" fill="none" xmlns="http://www.w3.org/2000/svg">
    <g clip-path="url(#clip0)">
        <path d="M16.2428 2.16278C14.7667 0.995234 12.9907 0.266567 11.1187 0.0603576C9.2466 -0.145852 7.35419 0.178745 5.65851 0.996918C3.96283 1.81509 2.53255 3.09371 1.5317 4.68612C0.530864 6.27852 0 8.12023 0 10C0 11.8798 0.530864 13.7215 1.5317 15.3139C2.53255 16.9063 3.96283 18.1849 5.65851 19.0031C7.35419 19.8213 9.2466 20.1459 11.1187 19.9396C12.9907 19.7334 14.7667 19.0048 16.2428 17.8372C16.259 14.1861 16.2428 6.07977 16.2428 2.16278Z" fill="#E30D17"/>
        <path d="M22.2249 1.10792e-05C20.0556 -0.00296905 17.9493 0.757276 16.25 2.15665C16.25 8.10768 16.2687 12.1615 16.25 17.8336C17.4552 18.8261 18.8719 19.5046 20.3815 19.8124C21.8912 20.1202 23.4499 20.0484 24.9273 19.603C26.4047 19.1576 27.7579 18.3515 28.8736 17.2522C29.9894 16.1529 30.8353 14.7922 31.3405 13.2841C31.8458 11.776 31.9958 10.1643 31.7779 8.58375C31.56 7.00318 30.9806 5.49974 30.0881 4.19917C29.1957 2.8986 28.0161 1.83872 26.6481 1.10816C25.2801 0.377613 23.7634 -0.00236542 22.2249 1.10792e-05Z" fill="#F69F00"/>
        <path d="M16.2492 17.5C16.2492 17.5 20 15.1693 20 9.68831C20 4.20735 16.2508 1.875 16.2508 1.875C16.2508 1.875 12.5 4.39646 12.5 9.68831C12.5 14.9785 16.2508 17.5 16.2508 17.5H16.2492Z" fill="#EB610A"/>
    </g>
    <defs>
        <clipPath id="clip0">
            <rect width="31.875" height="20" fill="white"/>
        </clipPath>
    </defs>
</svg>
